<svg xmlns="http://www.w3.org/2000/svg" viewBox="0 0 64 64" role="img" aria-label="AutoTreeGen mark (white mono)">
  <title>AutoTreeGen — mono white</title>
  <!-- Прозрачный фон, всё белое — для нанесения на тёмные поверхности -->
  <circle cx="32" cy="32" r="30" fill="none" stroke="#FFFFFF" stroke-width="1.4"/>
  <g stroke="#FFFFFF" stroke-linecap="round" fill="none">
    <path d="M32 30 V14" stroke-width="1.6"/>
    <path d="M32 16 L26 12 M32 16 L38 12" stroke-width="1.2"/>
    <path d="M32 19 L24 16.5 M32 19 L40 16.5" stroke-width="1.1"/>
    <path d="M32 23 L23 22 M32 23 L41 22" stroke-width="1.0"/>
    <path d="M32 27 L22 27.5 M32 27 L42 27.5" stroke-width="0.9"/>
    <path d="M26 12 L25 9 M38 12 L39 9" stroke-width="0.9"/>
    <path d="M24 16.5 L21.5 15 M40 16.5 L42.5 15" stroke-width="0.9"/>
  </g>
  <g fill="#FFFFFF">
    <circle cx="25" cy="9" r="0.9"/><circle cx="39" cy="9" r="0.9"/>
    <circle cx="32" cy="13.5" r="0.7"/>
    <circle cx="21.5" cy="15" r="0.7"/><circle cx="42.5" cy="15" r="0.7"/>
    <circle cx="22" cy="27.5" r="0.6"/><circle cx="42" cy="27.5" r="0.6"/>
  </g>
  <g fill="none" stroke="#FFFFFF" stroke-linecap="round">
    <path d="M32 30 C 28 34, 36 38, 32 42 C 28 46, 36 50, 32 52" stroke-width="1.5"/>
    <path d="M32 30 C 36 34, 28 38, 32 42 C 36 46, 28 50, 32 52" stroke-width="1.5"/>
    <line x1="29.4" y1="34" x2="34.6" y2="34" stroke-width="0.8"/>
    <line x1="29.4" y1="42" x2="34.6" y2="42" stroke-width="0.8"/>
    <line x1="29.4" y1="50" x2="34.6" y2="50" stroke-width="0.8"/>
  </g>
</svg>
